STARTFONT 2.1
FONT -FontForge-Bitstream Vera Sans-Book-R-Normal-Sans--14-140-72-72-P-85-ISO10646-1
SIZE 14 72 72
FONTBOUNDINGBOX 17 15 -2 -3
COMMENT "Generated by fontforge, http://fontforge.sourceforge.net"
STARTPROPERTIES 27
FONT_NAME "BitstreamVeraSans-Roman"
FONT_ASCENT 11
FONT_DESCENT 3
UNDERLINE_POSITION -213
UNDERLINE_THICKNESS 143
QUAD_WIDTH 14
X_HEIGHT 10
CAP_HEIGHT 7
FONTNAME_REGISTRY ""
FAMILY_NAME "Bitstream Vera Sans"
FOUNDRY "FontForge"
WEIGHT_NAME "Book"
SETWIDTH_NAME "Normal"
SLANT "R"
ADD_STYLE_NAME "Sans-"
PIXEL_SIZE 14
POINT_SIZE 140
RESOLUTION_X 72
RESOLUTION_Y 72
RESOLUTION 72
SPACING "P"
AVERAGE_WIDTH 85
CHARSET_REGISTRY "ISO10646"
CHARSET_ENCODING "-1"
CHARSET_COLLECTIONS "ASCII ISO8859-9 ISO10646-1"
FULL_NAME "Bitstream Vera Sans"
COPYRIGHT "Copyright (c) 2003 by Bitstream, Inc. All Rights Reserved."
ENDPROPERTIES
CHARS 268
STARTCHAR space
ENCODING 32
SWIDTH 317 0
DWIDTH 4 0
BBX 1 1 0 0
BITMAP
00
ENDCHAR
STARTCHAR exclam
ENCODING 33
SWIDTH 400 0
DWIDTH 6 0
BBX 2 11 2 0
BITMAP
C0
C0
C0
C0
C0
80
80
80
00
C0
C0
ENDCHAR
STARTCHAR quotedbl
ENCODING 34
SWIDTH 459 0
DWIDTH 6 0
BBX 4 4 1 7
BITMAP
D0
D0
D0
D0
ENDCHAR
STARTCHAR numbersign
ENCODING 35
SWIDTH 837 0
DWIDTH 12 0
BBX 10 11 1 0
BITMAP
0900
0900
0900
7FC0
7FC0
1200
1200
FF80
2400
2400
2400
ENDCHAR
STARTCHAR dollar
ENCODING 36
SWIDTH 636 0
DWIDTH 9 0
BBX 7 13 1 -2
BITMAP
10
10
7C
D0
90
70
3C
16
16
94
FC
10
10
ENDCHAR
STARTCHAR percent
ENCODING 37
SWIDTH 950 0
DWIDTH 13 0
BBX 12 11 1 0
BITMAP
6080
9080
9100
9300
9200
74C0
05A0
0920
1930
1120
20E0
ENDCHAR
STARTCHAR ampersand
ENCODING 38
SWIDTH 779 0
DWIDTH 11 0
BBX 9 11 1 0
BITMAP
1800
7C00
4000
6000
2000
5080
8880
8500
8300
C700
3D80
ENDCHAR
STARTCHAR quotesingle
ENCODING 39
SWIDTH 274 0
DWIDTH 4 0
BBX 2 4 1 7
BITMAP
C0
C0
C0
C0
ENDCHAR
STARTCHAR parenleft
ENCODING 40
SWIDTH 390 0
DWIDTH 5 0
BBX 3 13 1 -2
BITMAP
20
60
40
40
C0
C0
C0
C0
C0
40
40
60
20
ENDCHAR
STARTCHAR parenright
ENCODING 41
SWIDTH 390 0
DWIDTH 5 0
BBX 3 13 1 -2
BITMAP
C0
40
40
20
20
20
20
20
20
20
40
40
80
ENDCHAR
STARTCHAR asterisk
ENCODING 42
SWIDTH 500 0
DWIDTH 7 0
BBX 5 7 1 4
BITMAP
20
20
A8
70
F8
20
20
ENDCHAR
STARTCHAR plus
ENCODING 43
SWIDTH 837 0
DWIDTH 12 0
BBX 9 9 1 0
BITMAP
0800
0800
0800
0800
FF80
0800
0800
0800
0800
ENDCHAR
STARTCHAR comma
ENCODING 44
SWIDTH 317 0
DWIDTH 4 0
BBX 2 4 1 -2
BITMAP
40
40
C0
80
ENDCHAR
STARTCHAR hyphen
ENCODING 45
SWIDTH 360 0
DWIDTH 5 0
BBX 3 2 1 3
BITMAP
E0
E0
ENDCHAR
STARTCHAR period
ENCODING 46
SWIDTH 317 0
DWIDTH 4 0
BBX 2 2 1 0
BITMAP
C0
C0
ENDCHAR
STARTCHAR slash
ENCODING 47
SWIDTH 336 0
DWIDTH 5 0
BBX 5 12 0 -1
BITMAP
08
10
10
10
20
20
20
60
40
40
40
80
ENDCHAR
STARTCHAR zero
ENCODING 48
SWIDTH 636 0
DWIDTH 9 0
BBX 7 11 1 0
BITMAP
38
6C
C4
C6
82
82
82
86
C6
44
38
ENDCHAR
STARTCHAR one
ENCODING 49
SWIDTH 636 0
DWIDTH 9 0
BBX 6 11 2 0
BITMAP
60
E0
20
20
20
20
20
20
20
20
FC
ENDCHAR
STARTCHAR two
ENCODING 50
SWIDTH 636 0
DWIDTH 9 0
BBX 7 11 1 0
BITMAP
30
FC
04
04
04
0C
18
30
60
C0
FE
ENDCHAR
STARTCHAR three
ENCODING 51
SWIDTH 636 0
DWIDTH 9 0
BBX 7 11 1 0
BITMAP
70
FC
04
04
0C
38
04
06
06
8C
F8
ENDCHAR
STARTCHAR four
ENCODING 52
SWIDTH 636 0
DWIDTH 9 0
BBX 7 11 1 0
BITMAP
0C
1C
1C
2C
6C
4C
8C
FE
0C
0C
0C
ENDCHAR
STARTCHAR five
ENCODING 53
SWIDTH 636 0
DWIDTH 9 0
BBX 7 11 1 0
BITMAP
7C
7C
40
40
78
0C
06
06
06
8C
F8
ENDCHAR
STARTCHAR six
ENCODING 54
SWIDTH 636 0
DWIDTH 9 0
BBX 7 11 1 0
BITMAP
1C
7C
40
C0
BC
C6
C6
C2
C6
46
3C
ENDCHAR
STARTCHAR seven
ENCODING 55
SWIDTH 636 0
DWIDTH 9 0
BBX 7 11 1 0
BITMAP
FE
FE
04
0C
08
08
18
10
30
30
20
ENDCHAR
STARTCHAR eight
ENCODING 56
SWIDTH 636 0
DWIDTH 9 0
BBX 7 11 1 0
BITMAP
38
6C
C6
C6
44
38
C6
82
86
C6
7C
ENDCHAR
STARTCHAR nine
ENCODING 57
SWIDTH 636 0
DWIDTH 9 0
BBX 7 11 1 0
BITMAP
30
6C
C4
86
86
C6
7A
06
04
0C
78
ENDCHAR
STARTCHAR colon
ENCODING 58
SWIDTH 336 0
DWIDTH 5 0
BBX 1 8 2 0
BITMAP
80
80
00
00
00
00
80
80
ENDCHAR
STARTCHAR semicolon
ENCODING 59
SWIDTH 336 0
DWIDTH 5 0
BBX 2 10 1 -2
BITMAP
40
40
00
00
00
00
40
40
C0
80
ENDCHAR
STARTCHAR less
ENCODING 60
SWIDTH 837 0
DWIDTH 12 0
BBX 9 7 1 1
BITMAP
0180
0E00
7800
C000
3800
0F00
0180
ENDCHAR
STARTCHAR equal
ENCODING 61
SWIDTH 837 0
DWIDTH 12 0
BBX 9 4 1 3
BITMAP
FF80
FF80
0000
FF80
ENDCHAR
STARTCHAR greater
ENCODING 62
SWIDTH 837 0
DWIDTH 12 0
BBX 9 7 1 1
BITMAP
E000
3C00
0700
0180
0700
3800
E000
ENDCHAR
STARTCHAR question
ENCODING 63
SWIDTH 530 0
DWIDTH 7 0
BBX 5 11 1 0
BITMAP
70
F8
08
08
18
30
20
20
00
20
20
ENDCHAR
STARTCHAR at
ENCODING 64
SWIDTH 1000 0
DWIDTH 14 0
BBX 12 12 1 -2
BITMAP
1F80
2040
4020
CE90
9990
9090
9090
98B0
8FE0
4000
2040
1F80
ENDCHAR
STARTCHAR A
ENCODING 65
SWIDTH 684 0
DWIDTH 10 0
BBX 9 11 0 0
BITMAP
0C00
0C00
1C00
1600
3200
2200
2300
7F00
4180
4080
C080
ENDCHAR
STARTCHAR B
ENCODING 66
SWIDTH 686 0
DWIDTH 10 0
BBX 8 11 1 0
BITMAP
F8
CE
C2
C2
C6
FC
C2
C3
C3
C6
FC
ENDCHAR
STARTCHAR C
ENCODING 67
SWIDTH 698 0
DWIDTH 10 0
BBX 8 11 1 0
BITMAP
1C
7F
40
C0
80
80
80
C0
C0
61
3E
ENDCHAR
STARTCHAR D
ENCODING 68
SWIDTH 770 0
DWIDTH 11 0
BBX 9 11 1 0
BITMAP
F800
FE00
C300
C180
C180
C180
C180
C180
C100
C700
FC00
ENDCHAR
STARTCHAR E
ENCODING 69
SWIDTH 631 0
DWIDTH 9 0
BBX 7 11 1 0
BITMAP
FE
FE
C0
C0
C0
FE
C0
C0
C0
C0
FE
ENDCHAR
STARTCHAR F
ENCODING 70
SWIDTH 575 0
DWIDTH 8 0
BBX 6 11 1 0
BITMAP
FC
FC
C0
C0
C0
FC
C0
C0
C0
C0
C0
ENDCHAR
STARTCHAR G
ENCODING 71
SWIDTH 774 0
DWIDTH 11 0
BBX 9 11 1 0
BITMAP
1C00
7F00
4000
C000
8000
8780
8780
C180
C180
6180
3F00
ENDCHAR
STARTCHAR H
ENCODING 72
SWIDTH 751 0
DWIDTH 11 0
BBX 8 11 1 0
BITMAP
C1
C1
C1
C1
C1
FF
C1
C1
C1
C1
C1
ENDCHAR
STARTCHAR I
ENCODING 73
SWIDTH 294 0
DWIDTH 4 0
BBX 2 11 1 0
BITMAP
C0
C0
C0
C0
C0
C0
C0
C0
C0
C0
C0
ENDCHAR
STARTCHAR J
ENCODING 74
SWIDTH 294 0
DWIDTH 4 0
BBX 4 14 -1 -3
BITMAP
30
30
30
30
30
30
30
30
30
30
30
30
20
E0
ENDCHAR
STARTCHAR K
ENCODING 75
SWIDTH 655 0
DWIDTH 9 0
BBX 8 11 1 0
BITMAP
C3
C6
CC
D8
F0
E0
F0
D8
CC
C6
C3
ENDCHAR
STARTCHAR L
ENCODING 76
SWIDTH 557 0
DWIDTH 8 0
BBX 7 11 1 0
BITMAP
C0
C0
C0
C0
C0
C0
C0
C0
C0
C0
FE
ENDCHAR
STARTCHAR M
ENCODING 77
SWIDTH 862 0
DWIDTH 12 0
BBX 10 11 1 0
BITMAP
C0C0
E1C0
E1C0
F1C0
D2C0
D2C0
DEC0
CCC0
CCC0
C0C0
C0C0
ENDCHAR
STARTCHAR N
ENCODING 78
SWIDTH 748 0
DWIDTH 10 0
BBX 8 11 1 0
BITMAP
C1
E1
E1
F1
D1
D9
C9
CD
C5
C7
C3
ENDCHAR
STARTCHAR O
ENCODING 79
SWIDTH 787 0
DWIDTH 11 0
BBX 9 11 1 0
BITMAP
1C00
7700
4100
C180
8080
8080
8080
C080
C180
6300
3E00
ENDCHAR
STARTCHAR P
ENCODING 80
SWIDTH 603 0
DWIDTH 8 0
BBX 7 11 1 0
BITMAP
F8
FC
C6
C6
C6
DC
F8
C0
C0
C0
C0
ENDCHAR
STARTCHAR Q
ENCODING 81
SWIDTH 787 0
DWIDTH 11 0
BBX 9 13 1 -2
BITMAP
1C00
7700
4100
C180
8080
8080
8080
C080
C180
6300
3E00
0200
0300
ENDCHAR
STARTCHAR R
ENCODING 82
SWIDTH 694 0
DWIDTH 10 0
BBX 8 11 1 0
BITMAP
F8
FC
C6
C6
C6
FC
DC
C6
C2
C3
C1
ENDCHAR
STARTCHAR S
ENCODING 83
SWIDTH 634 0
DWIDTH 9 0
BBX 7 11 1 0
BITMAP
38
7E
80
80
C0
7C
06
02
02
86
FC
ENDCHAR
STARTCHAR T
ENCODING 84
SWIDTH 610 0
DWIDTH 9 0
BBX 9 11 0 0
BITMAP
FF80
FF80
0800
0800
0800
0800
0800
0800
0800
0800
0800
ENDCHAR
STARTCHAR U
ENCODING 85
SWIDTH 731 0
DWIDTH 10 0
BBX 8 11 1 0
BITMAP
C1
C1
C1
C1
C1
C1
C1
C1
C3
62
3C
ENDCHAR
STARTCHAR V
ENCODING 86
SWIDTH 684 0
DWIDTH 10 0
BBX 9 11 0 0
BITMAP
C080
4080
4180
6100
2100
2300
3200
1600
1400
1C00
0C00
ENDCHAR
STARTCHAR W
ENCODING 87
SWIDTH 988 0
DWIDTH 14 0
BBX 12 11 1 0
BITMAP
8610
8610
8630
CE30
C920
4920
4920
7960
71C0
30C0
30C0
ENDCHAR
STARTCHAR X
ENCODING 88
SWIDTH 685 0
DWIDTH 10 0
BBX 8 11 1 0
BITMAP
83
42
66
2C
18
18
38
2C
66
C2
83
ENDCHAR
STARTCHAR Y
ENCODING 89
SWIDTH 610 0
DWIDTH 9 0
BBX 8 11 0 0
BITMAP
C1
43
62
26
1C
18
08
08
08
08
08
ENDCHAR
STARTCHAR Z
ENCODING 90
SWIDTH 685 0
DWIDTH 10 0
BBX 8 11 1 0
BITMAP
FF
FF
06
04
08
18
30
60
40
C0
FF
ENDCHAR
STARTCHAR bracketleft
ENCODING 91
SWIDTH 390 0
DWIDTH 5 0
BBX 3 13 1 -2
BITMAP
E0
80
80
80
80
80
80
80
80
80
80
80
E0
ENDCHAR
STARTCHAR backslash
ENCODING 92
SWIDTH 336 0
DWIDTH 5 0
BBX 4 12 0 -1
BITMAP
80
C0
40
40
40
20
20
20
30
10
10
10
ENDCHAR
STARTCHAR bracketright
ENCODING 93
SWIDTH 390 0
DWIDTH 5 0
BBX 3 13 1 -2
BITMAP
E0
20
20
20
20
20
20
20
20
20
20
20
E0
ENDCHAR
STARTCHAR asciicircum
ENCODING 94
SWIDTH 837 0
DWIDTH 12 0
BBX 7 4 2 7
BITMAP
18
3C
66
C2
ENDCHAR
STARTCHAR underscore
ENCODING 95
SWIDTH 500 0
DWIDTH 7 0
BBX 7 1 0 -3
BITMAP
FE
ENDCHAR
STARTCHAR grave
ENCODING 96
SWIDTH 500 0
DWIDTH 7 0
BBX 3 3 1 9
BITMAP
C0
40
20
ENDCHAR
STARTCHAR a
ENCODING 97
SWIDTH 612 0
DWIDTH 9 0
BBX 6 8 1 0
BITMAP
78
8C
04
7C
C4
84
8C
74
ENDCHAR
STARTCHAR b
ENCODING 98
SWIDTH 634 0
DWIDTH 9 0
BBX 7 11 1 0
BITMAP
C0
C0
C0
FC
C4
C2
C2
C2
C2
C6
FC
ENDCHAR
STARTCHAR c
ENCODING 99
SWIDTH 549 0
DWIDTH 8 0
BBX 6 8 1 0
BITMAP
3C
C0
80
80
80
80
C0
3C
ENDCHAR
STARTCHAR d
ENCODING 100
SWIDTH 634 0
DWIDTH 9 0
BBX 7 11 1 0
BITMAP
06
06
06
7E
CE
86
86
86
86
C6
7E
ENDCHAR
STARTCHAR e
ENCODING 101
SWIDTH 615 0
DWIDTH 9 0
BBX 7 8 1 0
BITMAP
38
C4
86
FE
80
80
C2
3C
ENDCHAR
STARTCHAR f
ENCODING 102
SWIDTH 352 0
DWIDTH 5 0
BBX 5 11 0 0
BITMAP
38
20
20
F8
20
20
20
20
20
20
20
ENDCHAR
STARTCHAR g
ENCODING 103
SWIDTH 634 0
DWIDTH 9 0
BBX 7 11 1 -3
BITMAP
7E
C6
86
86
86
86
CE
7E
04
0C
78
ENDCHAR
STARTCHAR h
ENCODING 104
SWIDTH 633 0
DWIDTH 9 0
BBX 7 11 1 0
BITMAP
C0
C0
C0
FC
C4
C6
C6
C6
C6
C6
C6
ENDCHAR
STARTCHAR i
ENCODING 105
SWIDTH 277 0
DWIDTH 4 0
BBX 2 11 1 0
BITMAP
C0
C0
00
C0
C0
C0
C0
C0
C0
C0
C0
ENDCHAR
STARTCHAR j
ENCODING 106
SWIDTH 277 0
DWIDTH 4 0
BBX 3 14 0 -3
BITMAP
60
60
00
60
60
60
60
60
60
60
60
60
40
C0
ENDCHAR
STARTCHAR k
ENCODING 107
SWIDTH 579 0
DWIDTH 8 0
BBX 7 11 1 0
BITMAP
C0
C0
C0
C4
C8
D0
E0
F0
D8
CC
C6
ENDCHAR
STARTCHAR l
ENCODING 108
SWIDTH 277 0
DWIDTH 4 0
BBX 2 11 1 0
BITMAP
C0
C0
C0
C0
C0
C0
C0
C0
C0
C0
C0
ENDCHAR
STARTCHAR m
ENCODING 109
SWIDTH 974 0
DWIDTH 14 0
BBX 11 8 1 0
BITMAP
FDE0
C620
C620
C620
C620
C620
C620
C620
ENDCHAR
STARTCHAR n
ENCODING 110
SWIDTH 633 0
DWIDTH 9 0
BBX 7 8 1 0
BITMAP
FC
C4
C6
C6
C6
C6
C6
C6
ENDCHAR
STARTCHAR o
ENCODING 111
SWIDTH 611 0
DWIDTH 9 0
BBX 7 8 1 0
BITMAP
7C
C4
86
86
86
86
CC
78
ENDCHAR
STARTCHAR p
ENCODING 112
SWIDTH 634 0
DWIDTH 9 0
BBX 7 11 1 -3
BITMAP
FC
C6
C2
C2
C2
C2
E4
FC
C0
C0
C0
ENDCHAR
STARTCHAR q
ENCODING 113
SWIDTH 634 0
DWIDTH 9 0
BBX 7 11 1 -3
BITMAP
7E
C6
86
86
86
86
CE
7E
06
06
06
ENDCHAR
STARTCHAR r
ENCODING 114
SWIDTH 411 0
DWIDTH 6 0
BBX 5 8 1 0
BITMAP
F8
C0
C0
C0
C0
C0
C0
C0
ENDCHAR
STARTCHAR s
ENCODING 115
SWIDTH 520 0
DWIDTH 7 0
BBX 6 8 1 0
BITMAP
78
80
80
E0
38
0C
08
F8
ENDCHAR
STARTCHAR t
ENCODING 116
SWIDTH 392 0
DWIDTH 5 0
BBX 5 10 0 0
BITMAP
60
60
F8
60
60
60
60
60
60
38
ENDCHAR
STARTCHAR u
ENCODING 117
SWIDTH 633 0
DWIDTH 9 0
BBX 7 8 1 0
BITMAP
86
86
86
86
86
C6
C6
7E
ENDCHAR
STARTCHAR v
ENCODING 118
SWIDTH 591 0
DWIDTH 8 0
BBX 7 8 1 0
BITMAP
86
84
C4
4C
48
68
38
30
ENDCHAR
STARTCHAR w
ENCODING 119
SWIDTH 817 0
DWIDTH 11 0
BBX 10 8 1 0
BITMAP
8CC0
8C80
9480
D480
5780
5300
6300
6300
ENDCHAR
STARTCHAR x
ENCODING 120
SWIDTH 591 0
DWIDTH 8 0
BBX 6 8 1 0
BITMAP
84
4C
78
30
30
68
CC
84
ENDCHAR
STARTCHAR y
ENCODING 121
SWIDTH 591 0
DWIDTH 8 0
BBX 7 11 1 -3
BITMAP
86
84
C4
4C
48
38
30
30
30
20
E0
ENDCHAR
STARTCHAR z
ENCODING 122
SWIDTH 524 0
DWIDTH 7 0
BBX 6 8 1 0
BITMAP
FC
0C
18
30
60
40
80
FC
ENDCHAR
STARTCHAR braceleft
ENCODING 123
SWIDTH 636 0
DWIDTH 9 0
BBX 5 13 2 -2
BITMAP
38
20
20
20
20
20
C0
60
20
20
20
20
38
ENDCHAR
STARTCHAR bar
ENCODING 124
SWIDTH 336 0
DWIDTH 5 0
BBX 1 14 2 -3
BITMAP
80
80
80
80
80
80
80
80
80
80
80
80
80
80
ENDCHAR
STARTCHAR braceright
ENCODING 125
SWIDTH 636 0
DWIDTH 9 0
BBX 5 13 2 -2
BITMAP
C0
20
20
20
20
20
18
20
20
20
20
20
E0
ENDCHAR
STARTCHAR asciitilde
ENCODING 126
SWIDTH 837 0
DWIDTH 12 0
BBX 8 2 2 4
BITMAP
60
FF
ENDCHAR
STARTCHAR nonbreakingspace
ENCODING 160
SWIDTH 636 0
DWIDTH 9 0
BBX 1 1 0 0
BITMAP
00
ENDCHAR
STARTCHAR exclamdown
ENCODING 161
SWIDTH 400 0
DWIDTH 6 0
BBX 2 11 2 0
BITMAP
C0
C0
00
00
80
80
C0
C0
C0
C0
C0
ENDCHAR
STARTCHAR cent
ENCODING 162
SWIDTH 636 0
DWIDTH 9 0
BBX 6 10 1 -1
BITMAP
10
3C
70
D0
D0
D0
D0
50
3C
10
ENDCHAR
STARTCHAR sterling
ENCODING 163
SWIDTH 636 0
DWIDTH 9 0
BBX 7 11 1 0
BITMAP
1C
36
20
20
20
20
FC
20
20
20
FE
ENDCHAR
STARTCHAR currency
ENCODING 164
SWIDTH 636 0
DWIDTH 9 0
BBX 7 8 1 1
BITMAP
82
D6
7C
44
44
44
7C
82
ENDCHAR
STARTCHAR yen
ENCODING 165
SWIDTH 636 0
DWIDTH 9 0
BBX 7 11 1 0
BITMAP
82
86
44
4C
28
7C
10
FE
10
10
10
ENDCHAR
STARTCHAR brokenbar
ENCODING 166
SWIDTH 336 0
DWIDTH 5 0
BBX 1 13 2 -3
BITMAP
80
80
80
80
80
00
00
80
80
80
80
80
80
ENDCHAR
STARTCHAR section
ENCODING 167
SWIDTH 500 0
DWIDTH 7 0
BBX 5 12 1 -1
BITMAP
30
C8
80
C0
F0
98
88
C8
30
18
08
F8
ENDCHAR
STARTCHAR dieresis
ENCODING 168
SWIDTH 500 0
DWIDTH 7 0
BBX 5 1 1 10
BITMAP
D8
ENDCHAR
STARTCHAR copyright
ENCODING 169
SWIDTH 1000 0
DWIDTH 14 0
BBX 10 11 2 0
BITMAP
0C00
3300
4080
9E40
A040
A040
A040
B040
5E80
2100
1E00
ENDCHAR
STARTCHAR ordfeminine
ENCODING 170
SWIDTH 471 0
DWIDTH 7 0
BBX 5 8 1 3
BITMAP
60
90
38
C8
98
E8
00
F8
ENDCHAR
STARTCHAR guillemotleft
ENCODING 171
SWIDTH 611 0
DWIDTH 9 0
BBX 6 5 1 2
BITMAP
24
6C
90
48
24
ENDCHAR
STARTCHAR logicalnot
ENCODING 172
SWIDTH 837 0
DWIDTH 12 0
BBX 9 4 1 2
BITMAP
FF80
0080
0080
0080
ENDCHAR
STARTCHAR sfthyphen
ENCODING 173
SWIDTH 360 0
DWIDTH 5 0
BBX 3 2 1 3
BITMAP
E0
E0
ENDCHAR
STARTCHAR registered
ENCODING 174
SWIDTH 1000 0
DWIDTH 14 0
BBX 10 11 2 0
BITMAP
0C00
3300
4080
9E40
9240
9E40
9640
9240
5180
2100
1E00
ENDCHAR
STARTCHAR macron
ENCODING 175
SWIDTH 500 0
DWIDTH 7 0
BBX 5 1 1 10
BITMAP
F8
ENDCHAR
STARTCHAR degree
ENCODING 176
SWIDTH 500 0
DWIDTH 7 0
BBX 5 5 1 6
BITMAP
20
50
88
50
70
ENDCHAR
STARTCHAR plusminus
ENCODING 177
SWIDTH 837 0
DWIDTH 12 0
BBX 9 9 1 0
BITMAP
0800
0800
0800
FF80
0800
0800
0800
0000
FF80
ENDCHAR
STARTCHAR twosuperior
ENCODING 178
SWIDTH 400 0
DWIDTH 6 0
BBX 4 7 1 4
BITMAP
E0
30
10
20
40
80
60
ENDCHAR
STARTCHAR threesuperior
ENCODING 179
SWIDTH 400 0
DWIDTH 6 0
BBX 4 7 1 4
BITMAP
E0
10
10
60
10
30
40
ENDCHAR
STARTCHAR acute
ENCODING 180
SWIDTH 500 0
DWIDTH 7 0
BBX 3 3 3 9
BITMAP
60
40
80
ENDCHAR
STARTCHAR mu
ENCODING 181
SWIDTH 636 0
DWIDTH 9 0
BBX 7 11 1 -3
BITMAP
86
86
86
86
86
86
C6
BA
80
80
80
ENDCHAR
STARTCHAR paragraph
ENCODING 182
SWIDTH 636 0
DWIDTH 9 0
BBX 6 12 1 -1
BITMAP
3C
74
F4
F4
F4
74
14
14
14
14
14
14
ENDCHAR
STARTCHAR periodcentered
ENCODING 183
SWIDTH 317 0
DWIDTH 4 0
BBX 2 2 1 4
BITMAP
C0
C0
ENDCHAR
STARTCHAR cedilla
ENCODING 184
SWIDTH 500 0
DWIDTH 7 0
BBX 3 2 2 -3
BITMAP
20
C0
ENDCHAR
STARTCHAR onesuperior
ENCODING 185
SWIDTH 400 0
DWIDTH 6 0
BBX 2 7 2 4
BITMAP
80
80
80
80
80
80
40
ENDCHAR
STARTCHAR ordmasculine
ENCODING 186
SWIDTH 471 0
DWIDTH 7 0
BBX 5 8 1 3
BITMAP
60
90
88
88
88
F0
00
F8
ENDCHAR
STARTCHAR guillemotright
ENCODING 187
SWIDTH 611 0
DWIDTH 9 0
BBX 7 6 1 1
BITMAP
90
6C
36
2C
D8
90
ENDCHAR
STARTCHAR onequarter
ENCODING 188
SWIDTH 969 0
DWIDTH 14 0
BBX 12 11 1 0
BITMAP
4080
4080
4100
4100
4200
F420
0460
08A0
0920
11F0
2020
ENDCHAR
STARTCHAR onehalf
ENCODING 189
SWIDTH 969 0
DWIDTH 14 0
BBX 12 11 1 0
BITMAP
4080
4080
4100
4100
4200
F4E0
0410
0820
0860
10C0
20F0
ENDCHAR
STARTCHAR threequarters
ENCODING 190
SWIDTH 969 0
DWIDTH 14 0
BBX 12 11 1 0
BITMAP
E080
1080
3100
6100
1200
3420
4460
08A0
0920
11F0
2020
ENDCHAR
STARTCHAR questiondown
ENCODING 191
SWIDTH 530 0
DWIDTH 7 0
BBX 5 11 1 0
BITMAP
30
30
00
30
30
20
60
C0
80
C8
78
ENDCHAR
STARTCHAR Agrave
ENCODING 192
SWIDTH 684 0
DWIDTH 10 0
BBX 9 14 0 0
BITMAP
1000
0800
0000
0C00
0C00
1C00
1600
3200
2200
2300
7F00
4180
4080
C080
ENDCHAR
STARTCHAR Aacute
ENCODING 193
SWIDTH 684 0
DWIDTH 10 0
BBX 9 14 0 0
BITMAP
0400
0C00
0000
0C00
0C00
1C00
1600
3200
2200
2300
7F00
4180
4080
C080
ENDCHAR
STARTCHAR Acircumflex
ENCODING 194
SWIDTH 684 0
DWIDTH 10 0
BBX 9 14 0 0
BITMAP
0800
1400
0000
0C00
0C00
1C00
1600
3200
2200
2300
7F00
4180
4080
C080
ENDCHAR
STARTCHAR Atilde
ENCODING 195
SWIDTH 684 0
DWIDTH 10 0
BBX 9 13 0 0
BITMAP
1E00
0000
0C00
0C00
1C00
1600
3200
2200
2300
7F00
4180
4080
C080
ENDCHAR
STARTCHAR Adieresis
ENCODING 196
SWIDTH 684 0
DWIDTH 10 0
BBX 9 13 0 0
BITMAP
1600
0000
0C00
0C00
1C00
1600
3200
2200
2300
7F00
4180
4080
C080
ENDCHAR
STARTCHAR Aring
ENCODING 197
SWIDTH 684 0
DWIDTH 10 0
BBX 9 14 0 0
BITMAP
0800
1400
1200
1C00
0C00
1C00
1600
3200
2200
2300
7F00
4180
4080
C080
ENDCHAR
STARTCHAR AE
ENCODING 198
SWIDTH 974 0
DWIDTH 14 0
BBX 13 11 0 0
BITMAP
0FF8
0BF8
1B00
1300
1300
33F0
2300
7F00
4300
4300
C3F8
ENDCHAR
STARTCHAR Ccedilla
ENCODING 199
SWIDTH 698 0
DWIDTH 10 0
BBX 8 14 1 -3
BITMAP
1C
7F
40
C0
80
80
80
C0
C0
61
3E
04
04
18
ENDCHAR
STARTCHAR Egrave
ENCODING 200
SWIDTH 631 0
DWIDTH 9 0
BBX 7 14 1 0
BITMAP
20
10
00
FE
FE
C0
C0
C0
FE
C0
C0
C0
C0
FE
ENDCHAR
STARTCHAR Eacute
ENCODING 201
SWIDTH 631 0
DWIDTH 9 0
BBX 7 14 1 0
BITMAP
08
10
00
FE
FE
C0
C0
C0
FE
C0
C0
C0
C0
FE
ENDCHAR
STARTCHAR Ecircumflex
ENCODING 202
SWIDTH 631 0
DWIDTH 9 0
BBX 7 14 1 0
BITMAP
10
28
00
FE
FE
C0
C0
C0
FE
C0
C0
C0
C0
FE
ENDCHAR
STARTCHAR Edieresis
ENCODING 203
SWIDTH 631 0
DWIDTH 9 0
BBX 7 13 1 0
BITMAP
2C
00
FE
FE
C0
C0
C0
FE
C0
C0
C0
C0
FE
ENDCHAR
STARTCHAR Igrave
ENCODING 204
SWIDTH 294 0
DWIDTH 4 0
BBX 3 14 0 0
BITMAP
C0
40
00
60
60
60
60
60
60
60
60
60
60
60
ENDCHAR
STARTCHAR Iacute
ENCODING 205
SWIDTH 294 0
DWIDTH 4 0
BBX 3 14 1 0
BITMAP
60
40
00
C0
C0
C0
C0
C0
C0
C0
C0
C0
C0
C0
ENDCHAR
STARTCHAR Icircumflex
ENCODING 206
SWIDTH 294 0
DWIDTH 4 0
BBX 3 14 1 0
BITMAP
C0
E0
00
C0
C0
C0
C0
C0
C0
C0
C0
C0
C0
C0
ENDCHAR
STARTCHAR Idieresis
ENCODING 207
SWIDTH 294 0
DWIDTH 4 0
BBX 4 13 0 0
BITMAP
90
00
60
60
60
60
60
60
60
60
60
60
60
ENDCHAR
STARTCHAR Eth
ENCODING 208
SWIDTH 774 0
DWIDTH 11 0
BBX 10 11 0 0
BITMAP
7C00
7F00
6080
60C0
60C0
F840
60C0
60C0
6080
6380
7E00
ENDCHAR
STARTCHAR Ntilde
ENCODING 209
SWIDTH 748 0
DWIDTH 10 0
BBX 8 13 1 0
BITMAP
3C
00
C1
E1
E1
F1
D1
D9
C9
CD
C5
C7
C3
ENDCHAR
STARTCHAR Ograve
ENCODING 210
SWIDTH 787 0
DWIDTH 11 0
BBX 9 13 1 0
BITMAP
0800
0800
1C00
7700
4100
C180
8080
8080
8080
C080
C180
6300
3E00
ENDCHAR
STARTCHAR Oacute
ENCODING 211
SWIDTH 787 0
DWIDTH 11 0
BBX 9 13 1 0
BITMAP
0800
0800
1C00
7700
4100
C180
8080
8080
8080
C080
C180
6300
3E00
ENDCHAR
STARTCHAR Ocircumflex
ENCODING 212
SWIDTH 787 0
DWIDTH 11 0
BBX 9 13 1 0
BITMAP
1C00
2200
1C00
7700
4100
C180
8080
8080
8080
C080
C180
6300
3E00
ENDCHAR
STARTCHAR Otilde
ENCODING 213
SWIDTH 787 0
DWIDTH 11 0
BBX 9 13 1 0
BITMAP
3E00
0000
1C00
7700
4100
C180
8080
8080
8080
C080
C180
6300
3E00
ENDCHAR
STARTCHAR Odieresis
ENCODING 214
SWIDTH 787 0
DWIDTH 11 0
BBX 9 13 1 0
BITMAP
3600
0000
1C00
7700
4100
C180
8080
8080
8080
C080
C180
6300
3E00
ENDCHAR
STARTCHAR multiply
ENCODING 215
SWIDTH 837 0
DWIDTH 12 0
BBX 8 7 2 1
BITMAP
C2
66
3C
18
3C
66
C3
ENDCHAR
STARTCHAR Oslash
ENCODING 216
SWIDTH 787 0
DWIDTH 11 0
BBX 9 11 1 0
BITMAP
1C80
7780
4100
C380
8480
8880
9080
F080
E180
6300
BE00
ENDCHAR
STARTCHAR Ugrave
ENCODING 217
SWIDTH 731 0
DWIDTH 10 0
BBX 8 14 1 0
BITMAP
10
10
00
C1
C1
C1
C1
C1
C1
C1
C1
C3
62
3C
ENDCHAR
STARTCHAR Uacute
ENCODING 218
SWIDTH 731 0
DWIDTH 10 0
BBX 8 14 1 0
BITMAP
0C
08
00
C1
C1
C1
C1
C1
C1
C1
C1
C3
62
3C
ENDCHAR
STARTCHAR Ucircumflex
ENCODING 219
SWIDTH 731 0
DWIDTH 10 0
BBX 8 14 1 0
BITMAP
18
14
00
C1
C1
C1
C1
C1
C1
C1
C1
C3
62
3C
ENDCHAR
STARTCHAR Udieresis
ENCODING 220
SWIDTH 731 0
DWIDTH 10 0
BBX 8 13 1 0
BITMAP
24
00
C1
C1
C1
C1
C1
C1
C1
C1
C3
62
3C
ENDCHAR
STARTCHAR Yacute
ENCODING 221
SWIDTH 610 0
DWIDTH 9 0
BBX 8 14 0 0
BITMAP
04
08
00
C1
43
62
26
1C
18
08
08
08
08
08
ENDCHAR
STARTCHAR Thorn
ENCODING 222
SWIDTH 604 0
DWIDTH 8 0
BBX 7 11 1 0
BITMAP
C0
C0
F8
CC
C6
C6
C6
FC
F8
C0
C0
ENDCHAR
STARTCHAR germandbls
ENCODING 223
SWIDTH 629 0
DWIDTH 9 0
BBX 7 11 1 0
BITMAP
78
44
C4
D8
D0
D0
CC
C6
C2
C2
FC
ENDCHAR
STARTCHAR agrave
ENCODING 224
SWIDTH 612 0
DWIDTH 9 0
BBX 6 12 1 0
BITMAP
40
20
10
00
78
8C
04
7C
C4
84
8C
74
ENDCHAR
STARTCHAR aacute
ENCODING 225
SWIDTH 612 0
DWIDTH 9 0
BBX 6 12 1 0
BITMAP
08
10
30
00
78
8C
04
7C
C4
84
8C
74
ENDCHAR
STARTCHAR acircumflex
ENCODING 226
SWIDTH 612 0
DWIDTH 9 0
BBX 6 12 1 0
BITMAP
30
30
48
00
78
8C
04
7C
C4
84
8C
74
ENDCHAR
STARTCHAR atilde
ENCODING 227
SWIDTH 612 0
DWIDTH 9 0
BBX 6 11 1 0
BITMAP
78
58
00
78
8C
04
7C
C4
84
8C
74
ENDCHAR
STARTCHAR adieresis
ENCODING 228
SWIDTH 612 0
DWIDTH 9 0
BBX 6 11 1 0
BITMAP
48
00
00
78
8C
04
7C
C4
84
8C
74
ENDCHAR
STARTCHAR aring
ENCODING 229
SWIDTH 612 0
DWIDTH 9 0
BBX 6 13 1 0
BITMAP
30
48
48
30
00
78
8C
04
7C
C4
84
8C
74
ENDCHAR
STARTCHAR ae
ENCODING 230
SWIDTH 981 0
DWIDTH 14 0
BBX 12 8 1 0
BITMAP
F9C0
8E20
0410
7FF0
8400
8400
8A10
71E0
ENDCHAR
STARTCHAR ccedilla
ENCODING 231
SWIDTH 549 0
DWIDTH 8 0
BBX 6 11 1 -3
BITMAP
3C
C0
80
80
80
80
C0
3C
00
08
30
ENDCHAR
STARTCHAR egrave
ENCODING 232
SWIDTH 615 0
DWIDTH 9 0
BBX 7 12 1 0
BITMAP
60
20
10
00
38
C4
86
FE
80
80
C2
3C
ENDCHAR
STARTCHAR eacute
ENCODING 233
SWIDTH 615 0
DWIDTH 9 0
BBX 7 12 1 0
BITMAP
0C
08
10
00
38
C4
86
FE
80
80
C2
3C
ENDCHAR
STARTCHAR ecircumflex
ENCODING 234
SWIDTH 615 0
DWIDTH 9 0
BBX 7 12 1 0
BITMAP
10
28
28
00
38
C4
86
FE
80
80
C2
3C
ENDCHAR
STARTCHAR edieresis
ENCODING 235
SWIDTH 615 0
DWIDTH 9 0
BBX 7 11 1 0
BITMAP
68
00
00
38
C4
86
FE
80
80
C2
3C
ENDCHAR
STARTCHAR igrave
ENCODING 236
SWIDTH 277 0
DWIDTH 4 0
BBX 3 12 0 0
BITMAP
80
40
60
00
60
60
60
60
60
60
60
60
ENDCHAR
STARTCHAR iacute
ENCODING 237
SWIDTH 277 0
DWIDTH 4 0
BBX 3 12 1 0
BITMAP
20
40
80
00
C0
C0
C0
C0
C0
C0
C0
C0
ENDCHAR
STARTCHAR icircumflex
ENCODING 238
SWIDTH 277 0
DWIDTH 4 0
BBX 4 12 0 0
BITMAP
60
60
90
00
60
60
60
60
60
60
60
60
ENDCHAR
STARTCHAR idieresis
ENCODING 239
SWIDTH 277 0
DWIDTH 4 0
BBX 4 11 0 0
BITMAP
90
00
00
60
60
60
60
60
60
60
60
ENDCHAR
STARTCHAR eth
ENCODING 240
SWIDTH 611 0
DWIDTH 9 0
BBX 7 11 1 0
BITMAP
2C
70
18
7C
C4
86
86
86
86
C4
78
ENDCHAR
STARTCHAR ntilde
ENCODING 241
SWIDTH 633 0
DWIDTH 9 0
BBX 7 11 1 0
BITMAP
34
48
00
FC
C4
C6
C6
C6
C6
C6
C6
ENDCHAR
STARTCHAR ograve
ENCODING 242
SWIDTH 611 0
DWIDTH 9 0
BBX 7 12 1 0
BITMAP
40
20
10
00
7C
C4
86
86
86
86
CC
78
ENDCHAR
STARTCHAR oacute
ENCODING 243
SWIDTH 611 0
DWIDTH 9 0
BBX 7 12 1 0
BITMAP
08
18
10
00
7C
C4
86
86
86
86
CC
78
ENDCHAR
STARTCHAR ocircumflex
ENCODING 244
SWIDTH 611 0
DWIDTH 9 0
BBX 7 12 1 0
BITMAP
10
38
48
00
7C
C4
86
86
86
86
CC
78
ENDCHAR
STARTCHAR otilde
ENCODING 245
SWIDTH 611 0
DWIDTH 9 0
BBX 7 11 1 0
BITMAP
70
48
00
7C
C4
86
86
86
86
CC
78
ENDCHAR
STARTCHAR odieresis
ENCODING 246
SWIDTH 611 0
DWIDTH 9 0
BBX 7 11 1 0
BITMAP
68
00
00
7C
C4
86
86
86
86
CC
78
ENDCHAR
STARTCHAR divide
ENCODING 247
SWIDTH 837 0
DWIDTH 12 0
BBX 9 7 1 1
BITMAP
0C00
0C00
0000
FF80
0000
0C00
0C00
ENDCHAR
STARTCHAR oslash
ENCODING 248
SWIDTH 611 0
DWIDTH 9 0
BBX 7 8 1 0
BITMAP
7A
C4
8E
96
A6
A6
C4
F8
ENDCHAR
STARTCHAR ugrave
ENCODING 249
SWIDTH 633 0
DWIDTH 9 0
BBX 7 12 1 0
BITMAP
40
20
10
00
86
86
86
86
86
C6
C6
7E
ENDCHAR
STARTCHAR uacute
ENCODING 250
SWIDTH 633 0
DWIDTH 9 0
BBX 7 12 1 0
BITMAP
08
18
10
00
86
86
86
86
86
C6
C6
7E
ENDCHAR
STARTCHAR ucircumflex
ENCODING 251
SWIDTH 633 0
DWIDTH 9 0
BBX 7 12 1 0
BITMAP
10
28
48
00
86
86
86
86
86
C6
C6
7E
ENDCHAR
STARTCHAR udieresis
ENCODING 252
SWIDTH 633 0
DWIDTH 9 0
BBX 7 11 1 0
BITMAP
68
00
00
86
86
86
86
86
C6
C6
7E
ENDCHAR
STARTCHAR yacute
ENCODING 253
SWIDTH 591 0
DWIDTH 8 0
BBX 7 15 1 -3
BITMAP
08
10
10
00
86
84
C4
4C
48
38
30
30
30
20
E0
ENDCHAR
STARTCHAR thorn
ENCODING 254
SWIDTH 634 0
DWIDTH 9 0
BBX 7 14 1 -3
BITMAP
C0
C0
C0
FC
C6
C2
C2
C2
C2
C6
FC
C0
C0
C0
ENDCHAR
STARTCHAR ydieresis
ENCODING 255
SWIDTH 591 0
DWIDTH 8 0
BBX 7 14 1 -3
BITMAP
68
00
00
86
84
C4
4C
48
38
30
30
30
20
E0
ENDCHAR
STARTCHAR Cacute
ENCODING 262
SWIDTH 698 0
DWIDTH 10 0
BBX 8 13 1 0
BITMAP
08
08
1C
7F
40
C0
80
80
80
C0
C0
61
3E
ENDCHAR
STARTCHAR cacute
ENCODING 263
SWIDTH 549 0
DWIDTH 8 0
BBX 6 12 1 0
BITMAP
0C
08
10
00
3C
C0
80
80
80
80
C0
3C
ENDCHAR
STARTCHAR Ccaron
ENCODING 268
SWIDTH 698 0
DWIDTH 10 0
BBX 8 13 1 0
BITMAP
14
08
1C
7F
40
C0
80
80
80
C0
C0
61
3E
ENDCHAR
STARTCHAR ccaron
ENCODING 269
SWIDTH 549 0
DWIDTH 8 0
BBX 6 12 1 0
BITMAP
40
28
10
00
3C
C0
80
80
80
80
C0
3C
ENDCHAR
STARTCHAR dcroat
ENCODING 273
SWIDTH 634 0
DWIDTH 9 0
BBX 8 11 1 0
BITMAP
06
1F
06
7E
CE
86
86
86
86
C6
7E
ENDCHAR
STARTCHAR Gbreve
ENCODING 286
SWIDTH 774 0
DWIDTH 11 0
BBX 9 13 1 0
BITMAP
1C00
0000
1C00
7F00
4000
C000
8000
8780
8780
C180
C180
6180
3F00
ENDCHAR
STARTCHAR gbreve
ENCODING 287
SWIDTH 634 0
DWIDTH 9 0
BBX 7 14 1 -3
BITMAP
28
10
00
7E
C6
86
86
86
86
CE
7E
04
0C
78
ENDCHAR
STARTCHAR Idotaccent
ENCODING 304
SWIDTH 294 0
DWIDTH 4 0
BBX 2 13 1 0
BITMAP
C0
00
C0
C0
C0
C0
C0
C0
C0
C0
C0
C0
C0
ENDCHAR
STARTCHAR dotlessi
ENCODING 305
SWIDTH 277 0
DWIDTH 4 0
BBX 2 8 1 0
BITMAP
C0
C0
C0
C0
C0
C0
C0
C0
ENDCHAR
STARTCHAR Lslash
ENCODING 321
SWIDTH 562 0
DWIDTH 8 0
BBX 8 11 0 0
BITMAP
60
60
60
60
78
60
E0
E0
60
60
7F
ENDCHAR
STARTCHAR lslash
ENCODING 322
SWIDTH 284 0
DWIDTH 4 0
BBX 4 11 0 0
BITMAP
60
60
60
60
70
60
E0
60
60
60
60
ENDCHAR
STARTCHAR OE
ENCODING 338
SWIDTH 1069 0
DWIDTH 15 0
BBX 13 11 1 0
BITMAP
0FF8
3FF8
4300
C300
8300
83F8
8300
C300
C300
7300
1FF8
ENDCHAR
STARTCHAR oe
ENCODING 339
SWIDTH 1022 0
DWIDTH 14 0
BBX 13 8 1 0
BITMAP
79E0
C710
8610
87F8
8600
8600
C700
79F0
ENDCHAR
STARTCHAR Scedilla
ENCODING 350
SWIDTH 634 0
DWIDTH 9 0
BBX 7 14 1 -3
BITMAP
38
7E
80
80
C0
7C
06
02
02
86
FC
00
08
30
ENDCHAR
STARTCHAR scedilla
ENCODING 351
SWIDTH 520 0
DWIDTH 7 0
BBX 6 11 1 -3
BITMAP
78
80
80
E0
38
0C
08
F8
10
10
70
ENDCHAR
STARTCHAR Scaron
ENCODING 352
SWIDTH 634 0
DWIDTH 9 0
BBX 7 13 1 0
BITMAP
28
10
38
7E
80
80
C0
7C
06
02
02
86
FC
ENDCHAR
STARTCHAR scaron
ENCODING 353
SWIDTH 520 0
DWIDTH 7 0
BBX 6 12 1 0
BITMAP
48
50
20
00
78
80
80
E0
38
0C
08
F8
ENDCHAR
STARTCHAR Ydieresis
ENCODING 376
SWIDTH 610 0
DWIDTH 9 0
BBX 8 13 0 0
BITMAP
34
00
C1
43
62
26
1C
18
08
08
08
08
08
ENDCHAR
STARTCHAR Zcaron
ENCODING 381
SWIDTH 685 0
DWIDTH 10 0
BBX 8 14 1 0
BITMAP
24
18
00
FF
FF
06
04
08
18
30
60
40
C0
FF
ENDCHAR
STARTCHAR zcaron
ENCODING 382
SWIDTH 524 0
DWIDTH 7 0
BBX 6 12 1 0
BITMAP
48
50
20
00
FC
0C
18
30
60
40
80
FC
ENDCHAR
STARTCHAR florin
ENCODING 402
SWIDTH 636 0
DWIDTH 9 0
BBX 9 14 0 -3
BITMAP
0380
0400
0400
0400
0C00
3F00
0800
0800
0800
1800
1800
1000
1000
E000
ENDCHAR
STARTCHAR circumflex
ENCODING 710
SWIDTH 500 0
DWIDTH 7 0
BBX 3 3 2 9
BITMAP
40
A0
A0
ENDCHAR
STARTCHAR caron
ENCODING 711
SWIDTH 500 0
DWIDTH 7 0
BBX 5 3 1 9
BITMAP
88
50
20
ENDCHAR
STARTCHAR breve
ENCODING 728
SWIDTH 500 0
DWIDTH 7 0
BBX 3 2 2 9
BITMAP
A0
40
ENDCHAR
STARTCHAR dotaccent
ENCODING 729
SWIDTH 500 0
DWIDTH 7 0
BBX 1 1 3 10
BITMAP
80
ENDCHAR
STARTCHAR ring
ENCODING 730
SWIDTH 500 0
DWIDTH 7 0
BBX 3 4 2 9
BITMAP
E0
A0
A0
E0
ENDCHAR
STARTCHAR ogonek
ENCODING 731
SWIDTH 500 0
DWIDTH 7 0
BBX 3 3 2 -3
BITMAP
40
80
60
ENDCHAR
STARTCHAR tilde
ENCODING 732
SWIDTH 500 0
DWIDTH 7 0
BBX 5 2 1 9
BITMAP
E8
90
ENDCHAR
STARTCHAR hungarumlaut
ENCODING 733
SWIDTH 500 0
DWIDTH 7 0
BBX 4 3 2 9
BITMAP
50
90
A0
ENDCHAR
STARTCHAR Omega
ENCODING 937
SWIDTH 764 0
DWIDTH 11 0
BBX 9 11 1 0
BITMAP
1C00
7E00
C100
8180
8080
8080
8080
C180
4100
6600
F780
ENDCHAR
STARTCHAR pi
ENCODING 960
SWIDTH 588 0
DWIDTH 8 0
BBX 8 8 0 0
BITMAP
7F
E6
26
24
64
44
44
46
ENDCHAR
STARTCHAR endash
ENCODING 8211
SWIDTH 500 0
DWIDTH 7 0
BBX 7 2 0 3
BITMAP
FE
FE
ENDCHAR
STARTCHAR emdash
ENCODING 8212
SWIDTH 1000 0
DWIDTH 14 0
BBX 14 2 0 3
BITMAP
FFFC
FFFC
ENDCHAR
STARTCHAR quoteleft
ENCODING 8216
SWIDTH 317 0
DWIDTH 4 0
BBX 2 4 1 7
BITMAP
40
40
C0
C0
ENDCHAR
STARTCHAR quoteright
ENCODING 8217
SWIDTH 317 0
DWIDTH 4 0
BBX 2 4 1 7
BITMAP
40
40
40
80
ENDCHAR
STARTCHAR quotesinglbase
ENCODING 8218
SWIDTH 317 0
DWIDTH 4 0
BBX 2 4 1 -2
BITMAP
40
40
C0
80
ENDCHAR
STARTCHAR quotedblleft
ENCODING 8220
SWIDTH 518 0
DWIDTH 7 0
BBX 5 4 1 7
BITMAP
48
48
D0
D0
ENDCHAR
STARTCHAR quotedblright
ENCODING 8221
SWIDTH 518 0
DWIDTH 7 0
BBX 5 4 1 7
BITMAP
48
48
58
90
ENDCHAR
STARTCHAR quotedblbase
ENCODING 8222
SWIDTH 518 0
DWIDTH 7 0
BBX 5 4 1 -2
BITMAP
48
48
D0
90
ENDCHAR
STARTCHAR dagger
ENCODING 8224
SWIDTH 500 0
DWIDTH 7 0
BBX 7 12 0 -1
BITMAP
10
10
10
FE
10
10
10
10
10
10
10
10
ENDCHAR
STARTCHAR daggerdbl
ENCODING 8225
SWIDTH 500 0
DWIDTH 7 0
BBX 7 12 0 -1
BITMAP
10
10
10
FE
10
10
10
10
FE
10
10
10
ENDCHAR
STARTCHAR bullet
ENCODING 8226
SWIDTH 589 0
DWIDTH 8 0
BBX 4 4 2 3
BITMAP
F0
F0
F0
60
ENDCHAR
STARTCHAR ellipsis
ENCODING 8230
SWIDTH 1000 0
DWIDTH 14 0
BBX 10 2 2 0
BITMAP
8C40
8C40
ENDCHAR
STARTCHAR perthousand
ENCODING 8240
SWIDTH 1341 0
DWIDTH 19 0
BBX 17 11 1 0
BITMAP
608000
908000
910000
920000
920000
644200
05A580
092880
112880
112480
20E700
ENDCHAR
STARTCHAR guilsinglleft
ENCODING 8249
SWIDTH 399 0
DWIDTH 6 0
BBX 3 5 1 2
BITMAP
20
60
80
40
20
ENDCHAR
STARTCHAR guilsinglright
ENCODING 8250
SWIDTH 399 0
DWIDTH 6 0
BBX 4 6 1 1
BITMAP
80
60
30
20
C0
80
ENDCHAR
STARTCHAR Euro
ENCODING 8364
SWIDTH 636 0
DWIDTH 9 0
BBX 8 11 0 0
BITMAP
0E
1B
20
20
FE
60
FC
20
20
31
1E
ENDCHAR
STARTCHAR trademark
ENCODING 8482
SWIDTH 1000 0
DWIDTH 14 0
BBX 9 4 2 7
BITMAP
FC80
4D80
4A80
4880
ENDCHAR
STARTCHAR partialdiff
ENCODING 8706
SWIDTH 517 0
DWIDTH 7 0
BBX 6 10 1 0
BITMAP
30
68
08
0C
7C
8C
88
88
98
50
ENDCHAR
STARTCHAR Delta
ENCODING 8710
SWIDTH 668 0
DWIDTH 9 0
BBX 9 11 0 0
BITMAP
0800
0C00
1400
1600
3200
2200
2300
6100
4100
4180
FF80
ENDCHAR
STARTCHAR product
ENCODING 8719
SWIDTH 756 0
DWIDTH 11 0
BBX 9 14 1 -3
BITMAP
FF80
FF80
C180
C180
C180
C180
C180
C180
C180
C180
C180
C180
C180
C180
ENDCHAR
STARTCHAR summation
ENCODING 8721
SWIDTH 673 0
DWIDTH 9 0
BBX 9 14 0 -3
BITMAP
FF80
FF80
6000
3000
1800
0C00
0600
0600
0C00
1800
3000
6000
FF80
FF80
ENDCHAR
STARTCHAR minus
ENCODING 8722
SWIDTH 837 0
DWIDTH 12 0
BBX 9 1 1 4
BITMAP
FF80
ENDCHAR
STARTCHAR fraction
ENCODING 8725
SWIDTH 166 0
DWIDTH 2 0
BBX 7 11 -2 0
BITMAP
02
04
04
08
10
10
20
20
40
80
80
ENDCHAR
STARTCHAR periodcentered
ENCODING 8729
SWIDTH 317 0
DWIDTH 4 0
BBX 2 2 1 4
BITMAP
C0
C0
ENDCHAR
STARTCHAR radical
ENCODING 8730
SWIDTH 637 0
DWIDTH 9 0
BBX 8 12 1 0
BITMAP
03
02
02
04
04
C8
48
48
70
30
30
20
ENDCHAR
STARTCHAR infinity
ENCODING 8734
SWIDTH 833 0
DWIDTH 12 0
BBX 9 5 1 2
BITMAP
7300
8C80
8880
8C80
7380
ENDCHAR
STARTCHAR integral
ENCODING 8747
SWIDTH 520 0
DWIDTH 7 0
BBX 7 14 0 -3
BITMAP
0E
0E
10
10
10
10
10
10
10
10
10
10
E0
40
ENDCHAR
STARTCHAR approxequal
ENCODING 8776
SWIDTH 837 0
DWIDTH 12 0
BBX 8 5 2 2
BITMAP
F1
9F
00
F9
0E
ENDCHAR
STARTCHAR notequal
ENCODING 8800
SWIDTH 837 0
DWIDTH 12 0
BBX 9 8 1 1
BITMAP
0100
0300
FF80
FF80
0C00
FF80
1000
2000
ENDCHAR
STARTCHAR lessequal
ENCODING 8804
SWIDTH 837 0
DWIDTH 12 0
BBX 9 8 1 0
BITMAP
0380
1E00
E000
7800
0F80
0080
0000
FF80
ENDCHAR
STARTCHAR greaterequal
ENCODING 8805
SWIDTH 837 0
DWIDTH 12 0
BBX 9 9 1 0
BITMAP
8000
F000
1E00
0380
0F80
7800
C000
0000
FF80
ENDCHAR
STARTCHAR lozenge
ENCODING 9674
SWIDTH 494 0
DWIDTH 7 0
BBX 7 15 0 -3
BITMAP
10
10
30
28
48
44
84
82
82
44
44
48
28
30
10
ENDCHAR
STARTCHAR fi
ENCODING 64257
SWIDTH 629 0
DWIDTH 9 0
BBX 8 11 0 0
BITMAP
3B
23
20
FF
23
23
23
23
23
23
23
ENDCHAR
STARTCHAR fl
ENCODING 64258
SWIDTH 629 0
DWIDTH 9 0
BBX 7 11 0 0
BITMAP
3E
22
22
FA
22
22
22
22
22
22
22
ENDCHAR
STARTCHAR .notdef
ENCODING -1
SWIDTH 600 0
DWIDTH 8 0
BBX 8 13 0 -3
BITMAP
FF
81
81
81
81
81
81
81
81
81
81
81
7F
ENDCHAR
STARTCHAR .null
ENCODING -1
SWIDTH 0 0
DWIDTH 0 0
BBX 1 1 0 0
BITMAP
00
ENDCHAR
STARTCHAR nonmarkingreturn
ENCODING -1
SWIDTH 317 0
DWIDTH 4 0
BBX 1 1 0 0
BITMAP
00
ENDCHAR
STARTCHAR c6459
ENCODING -1
SWIDTH 500 0
DWIDTH 7 0
BBX 5 2 1 9
BITMAP
D8
D8
ENDCHAR
STARTCHAR c6460
ENCODING -1
SWIDTH 500 0
DWIDTH 7 0
BBX 2 2 3 9
BITMAP
40
80
ENDCHAR
STARTCHAR c6461
ENCODING -1
SWIDTH 500 0
DWIDTH 7 0
BBX 5 2 1 9
BITMAP
48
B0
ENDCHAR
STARTCHAR c6462
ENCODING -1
SWIDTH 500 0
DWIDTH 7 0
BBX 2 2 2 9
BITMAP
80
40
ENDCHAR
STARTCHAR c6463
ENCODING -1
SWIDTH 500 0
DWIDTH 7 0
BBX 3 2 2 9
BITMAP
40
A0
ENDCHAR
STARTCHAR c6466
ENCODING -1
SWIDTH 500 0
DWIDTH 7 0
BBX 3 2 2 9
BITMAP
A0
E0
ENDCHAR
STARTCHAR c6467
ENCODING -1
SWIDTH 400 0
DWIDTH 6 0
BBX 5 6 0 5
BITMAP
10
30
50
50
F8
10
ENDCHAR
STARTCHAR c6468
ENCODING -1
SWIDTH 500 0
DWIDTH 7 0
BBX 5 2 1 9
BITMAP
88
70
ENDCHAR
STARTCHAR c6469
ENCODING -1
SWIDTH 500 0
DWIDTH 7 0
BBX 1 2 3 9
BITMAP
80
80
ENDCHAR
ENDFONT
